<svg width="48" height="47" fill="none" xmlns="http://www.w3.org/2000/svg"><path fill-rule="evenodd" clip-rule="evenodd" d="M25.763 12.434s-.46.803-.46 1.54c0 .881.46 1.697.46 1.697l16.25 30.553L48 35.855 29.079 0H20c-.158 0-.553.026-.868.303-.54.473-1 1.368-1 1.368L0 35.855l5.855 10.369h8.105s.672.013 1.369-.33c.54-.276 1.066-.802 1.066-.802l9.737-8.434 1.328-.803H8.447s-.96.04-.96-.79c0-.75.96-.71.96-.71h2.33s.96.027 1.789-.67c.67-.553 1.092-1.632 1.092-1.632L25.395 9.868s.368-.842 1.092-.46c.75.381.237 1.237.237 1.237l-.96 1.79z" fill="#167843"/></svg>