<svg width="48" height="48" fill="none" xmlns="http://www.w3.org/2000/svg"><path d="M13.08 10c.12 1.78.42 3.52.9 5.18l-2.4 2.4c-.82-2.4-1.34-4.94-1.52-7.58h3.02zM32.8 34.04c1.7.48 3.44.78 5.2.9v2.98c-2.64-.18-5.18-.7-7.6-1.5l2.4-2.38zM15 6H8c-1.1 0-2 .9-2 2 0 18.78 15.22 34 34 34 1.1 0 2-.9 2-2v-6.98c0-1.1-.9-2-2-2-2.48 0-4.9-.4-7.14-1.14-.2-.08-.42-.1-.62-.1-.52 0-1.02.2-1.42.58l-4.4 4.4c-5.66-2.9-10.3-7.52-13.18-13.18l4.4-4.4c.56-.56.72-1.34.5-2.04A22.72 22.72 0 0117 8c0-1.1-.9-2-2-2z" fill="#167843"/></svg>