<svg width="29" height="28" fill="none" xmlns="http://www.w3.org/2000/svg"><path fill-rule="evenodd" clip-rule="evenodd" d="M15.234 7.448s-.267.476-.267.918c0 .51.267 1.02.267 1.02l9.53 18.296 3.5-6.19L17.166 0h-5.332c-.1 0-.333.034-.5.17-.333.272-.6.816-.6.816L.105 21.46l3.433 6.189h4.765s.4 0 .8-.204c.333-.17.633-.476.633-.476l5.698-5.033.766-.476H5.037s-.566.034-.566-.477c0-.442.566-.408.566-.408h1.366s.567.034 1.067-.408c.4-.34.633-.986.633-.986L15 5.883s.233-.51.633-.272c.433.238.133.748.133.748l-.533 1.089z" fill="#202020"/></svg>