<svg width="21" height="20" fill="none" xmlns="http://www.w3.org/2000/svg"><g clip-path="url(#clip0)" fill="#FF9D1F"><path d="M10.005 20C4.502 20 0 15.5 0 10S4.502 0 10.005 0c5.502 0 10.004 4.5 10.004 10s-4.502 10-10.005 10zm0-18.75C5.19 1.25 1.25 5.188 1.25 10c0 4.813 3.939 8.75 8.754 8.75 4.814 0 8.754-3.938 8.754-8.75 0-4.813-3.94-8.75-8.755-8.75z"/><path d="M8.129 14l-2.94-2.938.876-.874L8.13 12.25l5.815-5.813.875.875L8.13 14z"/></g><defs><clipPath id="clip0"><path fill="#fff" d="M0 0h20.009v20H0z"/></clipPath></defs></svg>