<svg width="18" height="18" fill="none" xmlns="http://www.w3.org/2000/svg"><g clip-path="url(#clip0)" fill="#FF9D1F"><path d="M16.765 1.236a4.219 4.219 0 00-5.967 0L7.272 4.762c-1.704 1.704-1.546 4.42 0 5.966.26.259.546.47.848.643l.644-.643c.422-.422.274-.916.266-1.272a2.037 2.037 0 01-.266-.22c-.794-.793-.83-2.154 0-2.983l3.526-3.526a2.111 2.111 0 012.983 0 2.11 2.11 0 010 2.983l-2.33 2.331c.067.373.471 1.256.263 2.713.01-.01.023-.016.033-.026l3.526-3.526a4.219 4.219 0 000-5.966z"/><path d="M11 6.999a4.015 4.015 0 00-.848-.644L9.51 7c-.422.422-.274.915-.266 1.272.093.065.183.136.266.22.794.793.83 2.153 0 2.982l-3.8 3.8a2.111 2.111 0 01-2.982 0 2.111 2.111 0 010-2.983L5.33 9.686c-.068-.373-.472-1.257-.264-2.714-.01.01-.023.017-.033.027l-3.799 3.8A4.219 4.219 0 007.2 16.764l3.8-3.799C12.673 11.293 12.58 8.58 11 7z"/></g><defs><clipPath id="clip0"><path fill="#fff" d="M0 0h18v18H0z"/></clipPath></defs></svg>