<svg width="27" height="36" fill="none" xmlns="http://www.w3.org/2000/svg"><path d="M17.192 1.5H1.5v33h24V9.75L17.192 1.5z" stroke="#FF9D1F" stroke-width="2"/><path d="M15.5 11V4.5l7 6.5h-7z" fill="#FF9D1F"/><path d="M6.327 23.22h.498c.466 0 .814-.09 1.045-.273.231-.185.347-.454.347-.805 0-.355-.098-.617-.293-.787-.192-.169-.495-.253-.908-.253h-.689v2.119zm3.418-1.132c0 .768-.24 1.356-.723 1.763-.478.407-1.16.61-2.045.61h-.65V27H4.813v-7.139h2.28c.867 0 1.524.188 1.973.562.453.37.68.926.68 1.665zm7.27 1.274c0 1.175-.335 2.076-1.005 2.7-.668.625-1.633.938-2.896.938h-2.021v-7.139h2.241c1.165 0 2.07.308 2.715.923.644.615.967 1.475.967 2.578zm-1.572.04c0-1.534-.677-2.3-2.03-2.3h-.807v4.648h.65c1.458 0 2.187-.783 2.187-2.349zM19.984 27h-1.489v-7.139h4.092v1.24h-2.603v1.841h2.422v1.236h-2.422V27z" fill="#202020"/></svg>