<svg width="210" height="28" fill="none" xmlns="http://www.w3.org/2000/svg"><g clip-path="url(#clip0)" fill="#fff"><path fill-rule="evenodd" clip-rule="evenodd" d="M105.234 7.448s-.267.476-.267.918c0 .51.267 1.02.267 1.02l9.53 18.296 3.499-6.19L107.167 0h-5.332c-.1 0-.333.034-.5.17-.333.272-.6.816-.6.816L90.105 21.46l3.433 6.189h4.765s.4 0 .8-.204c.333-.17.633-.476.633-.476l5.698-5.033.766-.476H95.037s-.566.034-.566-.477c0-.442.566-.408.566-.408h1.366s.567.034 1.067-.408c.4-.34.633-.986.633-.986L105 5.883s.233-.51.633-.272c.433.238.133.748.133.748l-.533 1.089z"/><path d="M11.93 3.183c-.4 0-.833.17-1.333 1.292a.342.342 0 01-.034.102L0 24.812h6.864l1.267-2.449c.3-.578.433-1.156 1.866-1.156h10.796c.967 0 1.4 0 1.966 1.156.634 1.19 1.267 2.449 1.267 2.449h6.864L19.66 3.183h-7.73zm-.667 13.195l4.232-8.162 4.232 8.162h-8.464zm27.69-13.215h-4.965c-.466 0-1.133.306-1.133 1.156V24.79h24.86v-5.067H38.92l.033-16.561zm22.927 0c-.266 0-1.3-.034-1.266 1.258v20.37h24.859v-5.067H66.679v-3.333h15.795s1.166.034 1.166-1.088v-3.707H66.679V8.264h18.794V3.163H61.88zm82.142 14.691L129.694 3.163h-5.598s-1.034.068-1.034 1.054V24.79h6.065V10.066L142.89 24.18c.199.204.566.578 1.099.578h6.065V3.13h-4.965c-.467 0-1.1.272-1.1 1.122.033.816.033 13.603.033 13.603zm35.42-6.054c0-6.155-4.865-8.637-9.697-8.637H154.15a1.03 1.03 0 00-.966 1.088v20.54h16.794c6.565 0 9.464-4.387 9.431-8.57.066-2.006.033 1.633.033-4.42zm-5.598 3.81c0 4.386-4.399 4.114-4.399 4.114h-10.097V8.23h9.83c4.966 0 4.666 3.944 4.632 4.217.034.238.034.782.034 3.162zm24.894-12.447h-7.73c-.4 0-.833.17-1.333 1.292a.343.343 0 01-.034.102L179.078 24.79h6.865l1.266-2.448c.3-.578.433-1.157 1.866-1.157h10.796c.967 0 1.4 0 1.966 1.157a136.25 136.25 0 011.267 2.448h6.864l-11.23-21.628zm-8.43 13.194l4.232-8.161 4.232 8.161h-8.464z"/></g><defs><clipPath id="clip0"><path fill="#fff" d="M0 0h210v27.682H0z"/></clipPath></defs></svg>