<svg width="18" height="19" fill="none" xmlns="http://www.w3.org/2000/svg"><path d="M17 13.01c-1.24 0-2.45-.2-3.57-.57a.84.84 0 00-.31-.05c-.26 0-.51.1-.71.29l-2.2 2.2a15.149 15.149 0 01-6.59-6.59l2.2-2.2c.28-.28.36-.67.25-1.02A11.36 11.36 0 015.5 1.5c0-.55-.45-1-1-1H1c-.55 0-1 .45-1 1 0 9.39 7.61 17 17 17 .55 0 1-.45 1-1v-3.49c0-.55-.45-1-1-1zM2.03 2.5h1.5a13 13 0 00.46 2.59l-1.2 1.2c-.41-1.2-.67-2.47-.76-3.79zM16 16.47c-1.32-.09-2.59-.35-3.8-.75l1.19-1.19c.85.24 1.72.39 2.6.45v1.49H16zM15 6.5h-2.59l5.02-5.02L16.02.07 11 5.09V2.5H9v6h6v-2z" fill="#fff"/></svg>