<svg width="22" height="22" fill="none" xmlns="http://www.w3.org/2000/svg"><path fill-rule="evenodd" clip-rule="evenodd" d="M12 6.625a1 1 0 00-2 0V10H6.625a1 1 0 000 2H10v3.375a1 1 0 102 0V12h3.375a1 1 0 000-2H12V6.625z" fill="#000"/><mask id="mask0" maskUnits="userSpaceOnUse" x="5" y="5" width="12" height="12"><path fill-rule="evenodd" clip-rule="evenodd" d="M12 6.625a1 1 0 00-2 0V10H6.625a1 1 0 000 2H10v3.375a1 1 0 102 0V12h3.375a1 1 0 000-2H12V6.625z" fill="#fff"/></mask><g mask="url(#mask0)"><path fill="#DDAF80" d="M0 0h22v22H0z"/></g></svg>