<svg width="86" height="86" fill="none" xmlns="http://www.w3.org/2000/svg"><path d="M84.823 70.343l-35.638-35.52a25.387 25.387 0 00-5.652-27.384C34.506-1.558 20.455-2.38 10.447 4.896l15.071 15.061-5.573 5.516L4.913 10.49c-7.3 9.937-6.476 23.98 2.55 32.939 7.301 7.276 17.937 9.193 27.043 5.79l35.755 35.637a3.918 3.918 0 005.534 0l9.028-8.998c1.57-1.486 1.57-3.95 0-5.515zm-11.775 6.259l-37.13-37.007a17.19 17.19 0 01-7.849 3.208c-5.338.782-10.95-.822-15.032-4.89-3.729-3.677-5.455-8.606-5.18-13.457l12.127 12.088 16.641-16.587L24.498 7.87c4.866-.273 9.772 1.448 13.501 5.125a17.444 17.444 0 014.867 15.491c-.471 2.778-1.648 5.36-3.454 7.668l37.09 36.967-3.454 3.482z" fill="#FFB650"/></svg>