<svg width="86" height="86" fill="none" xmlns="http://www.w3.org/2000/svg"><path d="M75.855 47.214c.177-1.376.31-2.752.31-4.214 0-1.462-.133-2.838-.31-4.214l9.328-7.095c.84-.645 1.06-1.806.53-2.752l-8.841-14.878c-.398-.688-1.15-1.075-1.945-1.075-.266 0-.53.043-.752.129l-11.007 4.3c-2.299-1.72-4.774-3.139-7.471-4.214l-1.68-11.395C53.884.774 52.957 0 51.851 0H34.169c-1.106 0-2.034.774-2.167 1.806l-1.68 11.395c-2.696 1.075-5.172 2.537-7.47 4.214l-11.008-4.3a2.566 2.566 0 00-.795-.129c-.752 0-1.503.387-1.901 1.075L.306 28.939c-.574.946-.309 2.107.531 2.752l9.328 7.095c-.177 1.376-.31 2.795-.31 4.214 0 1.419.133 2.838.31 4.214L.837 54.309c-.84.645-1.061 1.806-.53 2.752l8.84 14.878c.399.688 1.15 1.075 1.946 1.075.265 0 .53-.043.751-.129l11.008-4.3a32.518 32.518 0 007.47 4.214l1.68 11.395C32.135 85.226 33.063 86 34.168 86h17.683c1.105 0 2.034-.774 2.166-1.806l1.68-11.395c2.697-1.075 5.172-2.537 7.47-4.214l11.008 4.3c.265.086.53.129.796.129.751 0 1.503-.387 1.9-1.075l8.842-14.878c.53-.946.31-2.107-.53-2.752l-9.328-7.095zm-8.753-7.353A22.36 22.36 0 0167.323 43c0 .903-.088 1.849-.22 3.139l-.62 4.859 3.935 3.01 4.774 3.612-3.094 5.203-5.615-2.193-4.597-1.806-3.979 2.924c-1.9 1.376-3.713 2.408-5.525 3.139l-4.686 1.849-.708 4.859-.884 5.805h-6.189l-.84-5.805-.707-4.859-4.686-1.849a25.266 25.266 0 01-5.437-3.053l-4.023-3.01-4.686 1.849-5.614 2.193-3.094-5.203 4.774-3.612 3.934-3.01-.619-4.859c-.132-1.333-.22-2.322-.22-3.182 0-.86.088-1.849.22-3.139l.62-4.859-3.935-3.01-4.774-3.612 3.094-5.203 5.614 2.193 4.598 1.806 3.978-2.924c1.901-1.376 3.714-2.408 5.526-3.139l4.686-1.849.707-4.859.884-5.805h6.145l.84 5.805.707 4.859 4.686 1.849a25.26 25.26 0 015.438 3.053l4.022 3.01 4.686-1.849 5.614-2.193 3.095 5.203-4.73 3.655-3.935 3.01.62 4.859zM43.01 25.8c-9.77 0-17.683 7.697-17.683 17.2S33.24 60.2 43.01 60.2 60.692 52.503 60.692 43 52.78 25.8 43.01 25.8zm0 25.8c-4.863 0-8.841-3.87-8.841-8.6 0-4.73 3.978-8.6 8.84-8.6 4.864 0 8.842 3.87 8.842 8.6 0 4.73-3.978 8.6-8.841 8.6z" fill="#FFB650"/></svg>