<svg width="337" height="107" fill="none" xmlns="http://www.w3.org/2000/svg"><g clip-path="url(#clip0)"><path fill-rule="evenodd" clip-rule="evenodd" d="M111.052 94.456h105.543L213.387 107H101.855l9.197-12.544z" fill="#E59200"/><path fill-rule="evenodd" clip-rule="evenodd" d="M130.566 97.511c-1.016-.428-1.765-.59-2.513-.59-2.299 0-4.01 1.61-4.01 3.861 0 1.554 1.176 3.645 3.903 3.645 1.123 0 1.925-.268 2.62-.643v-1.126c-.802.536-1.711.804-2.513.804-1.764 0-2.941-1.126-2.941-2.788 0-1.608 1.23-2.787 2.887-2.787.856 0 1.604.214 2.513.75v-1.126h.054zm1.336 3.163c0 1.984 1.497 3.753 3.903 3.753 2.46 0 3.957-1.769 3.957-3.753 0-2.037-1.497-3.752-3.903-3.752-2.406 0-3.957 1.715-3.957 3.752zm1.07 0c0-1.608 1.229-2.787 2.833-2.787s2.834 1.18 2.834 2.787c0 1.609-1.23 2.788-2.834 2.788s-2.833-1.179-2.833-2.788zm15.292-3.644h-.962v5.628l-4.919-5.629h-.856v7.291h.963v-5.629l4.865 5.629h.909v-7.29zm5.559.428c-.534-.322-1.069-.536-1.604-.536-1.336 0-2.192.75-2.192 1.93 0 1.983 3.155 2.144 3.155 3.699 0 .428-.374.911-1.176.911-.695 0-1.391-.375-1.925-1.072v1.34c.588.482 1.23.697 2.032.697 1.176 0 2.031-.858 2.031-1.984 0-2.305-3.154-2.305-3.154-3.698 0-.537.481-.858 1.176-.858.481 0 1.069.16 1.711.75v-1.18h-.054zm7.223-.428h-6.042v.964h2.513v6.326h1.016v-6.326h2.513v-.965zm1.333 0v7.29h1.069v-3.163h.428c.535 0 .962.161 1.925 1.662l.962 1.501h1.23c-.481-.697-.695-.965-1.016-1.448-.535-.911-.962-1.608-1.604-2.037.802-.321 1.23-.964 1.23-1.769 0-1.286-.909-2.037-2.406-2.037h-1.818zm1.016.91h.695c1.016 0 1.443.43 1.443 1.126 0 .59-.32 1.18-1.443 1.18h-.695v-2.305zm11.711-.91h-1.069v4.234c0 .697-.107 1.233-.482 1.608-.32.322-.909.59-1.711.59-.641 0-1.176-.214-1.55-.643-.321-.322-.428-.697-.428-1.501v-4.289h-1.069v4.557c0 1.983 1.497 2.841 3.047 2.841 2.139 0 3.208-1.179 3.208-2.948v-4.45h.054zm8.179.481c-1.016-.428-1.765-.59-2.513-.59-2.299 0-4.01 1.61-4.01 3.861 0 1.554 1.176 3.645 3.903 3.645 1.123 0 1.925-.268 2.62-.643v-1.126c-.802.536-1.711.804-2.513.804-1.765 0-2.941-1.126-2.941-2.788 0-1.608 1.23-2.787 2.887-2.787.856 0 1.604.214 2.513.75v-1.126h.054zm7.111-.481h-6.095v.964h2.513v6.326h1.069v-6.326h2.513v-.965z" fill="#010711"/><path d="M192.749 97.03h-1.069v7.29h1.069v-7.29z" fill="#010711"/><path fill-rule="evenodd" clip-rule="evenodd" d="M194.566 100.674c0 1.984 1.497 3.753 3.903 3.753 2.46 0 3.957-1.769 3.957-3.753 0-2.037-1.497-3.752-3.903-3.752-2.406 0-3.957 1.715-3.957 3.752zm1.07 0c0-1.608 1.229-2.787 2.833-2.787 1.658 0 2.834 1.18 2.834 2.787 0 1.609-1.23 2.788-2.834 2.788s-2.833-1.179-2.833-2.788zm15.292-3.644h-1.016v5.628l-4.919-5.629h-.802v7.291h.963v-5.629l4.865 5.629h.909v-7.29zm-10.696-28.734h23.097l-1.497 5.79h-14.65l-.801 2.894h14.008l-1.23 4.718h-14.008l-.749 2.894h14.704l-1.498 5.79h-23.151l5.775-22.086zm-32.08 14.313h8.661c0 .053-.106 3.216 4.545 3.216 3.155 0 3.636-1.018 3.743-1.447.16-.804-.428-1.233-1.604-1.501-3.796-.911-8.929-2.573-10.319-3.43-.963-.59-2.353-1.823-2.406-4.397 0-3.377 4.01-7.558 12.564-7.505 4.278.054 6.951.912 8.555 1.608 3.422 1.555 3.689 4.825 3.636 6.219h-8.501s0-2.466-3.583-2.627c-1.764-.053-3.742.215-3.742 1.608 0 1.18 1.176 1.501 4.063 2.145.642.16 5.293 1.072 6.737 1.608 2.673.965 3.956 2.359 3.529 5.253-.909 6.487-9.303 7.505-13.581 7.559-5.346.054-11.014-.965-12.19-6.326a64.209 64.209 0 01-.107-1.983zm-10.373.643l-.695-8.416-5.507 8.416h6.202zm5.828-15.01l3.85 22.14h-9.303l-.214-2.627h-9.036l-1.711 2.627h-9.838l16.254-22.086h9.998v-.054zm-23.792 15.332a11.276 11.276 0 01-2.032 2.948c-1.978 2.144-5.507 4.342-11.442 4.342-7.218 0-10.052-2.573-11.495-5.146a9.286 9.286 0 01-1.123-5.414c.267-3.056 3.208-12.812 16.04-12.812 7.218 0 10.052 2.358 11.121 4.985.855 2.09.535 5.307.481 5.575h-8.448c.268-1.608-.213-4.342-3.101-4.342-3.208 0-6.255 2.359-7.111 5.468-.962 3.43 1.016 5.575 4.064 5.629 3.261.053 4.865-2.627 4.919-2.68h8.608c0 .267-.321 1.072-.481 1.447z" fill="#010711"/><path d="M337 52.696H0v2.037h337v-2.037z" fill="#E59200"/><path fill-rule="evenodd" clip-rule="evenodd" d="M168.848 11.74s-.428.75-.428 1.447c0 .805.428 1.609.428 1.609l15.292 28.84 5.613-9.756L171.949 0h-8.555c-.16 0-.534.054-.802.268-.534.429-.962 1.287-.962 1.287l-17.056 32.271 5.507 9.757h7.646s.642 0 1.283-.322c.535-.268 1.016-.75 1.016-.75l9.143-7.934 1.23-.75h-17.912s-.909.053-.909-.751c0-.697.909-.644.909-.644h2.192s.909.054 1.711-.643c.642-.536 1.016-1.555 1.016-1.555l11.068-20.96s.374-.804 1.016-.429c.695.375.214 1.18.214 1.18l-.856 1.715z" fill="#06080A"/><path d="M19.195 4.985c-.642 0-1.337.268-2.14 2.037 0 .054-.053.161-.053.161L0 39.08h11.014s1.55-2.949 2.032-3.86c.481-.911.695-1.823 2.994-1.823h17.323c1.55 0 2.246 0 3.155 1.823a214.497 214.497 0 012.031 3.86h11.014L31.545 4.985h-12.35zm-1.123 20.8l6.79-12.866 6.79 12.866h-13.58zm44.432-20.8h-7.913c-.748 0-1.818.483-1.818 1.823V39.08H92.66v-7.988H62.504V4.985zm36.838 0c-.428 0-2.086-.053-2.032 1.984v32.11h39.886v-7.987h-30.155V25.84h25.343s1.871.053 1.871-1.716V18.28h-27.214v-5.253h30.155V4.985H99.342zm131.796 23.159l-22.99-23.159h-8.983s-1.657.107-1.657 1.662V39.08h9.731V15.867l22.081 22.247c.321.322.909.912 1.765.912h9.731V4.932h-7.967c-.748 0-1.764.428-1.764 1.769.053 1.286.053 21.443.053 21.443zm56.833-9.542c0-9.703-7.806-13.617-15.558-13.617H247.39c-.213 0-1.55.215-1.55 1.716V39.08h26.947c10.533 0 15.185-6.916 15.131-13.51.054-3.162.053 2.574.053-6.968zm-9.035 6.004c0 6.915-7.058 6.486-7.058 6.486h-16.2v-18.12h15.772c7.967 0 7.486 6.22 7.432 6.648.054.375.054 1.233.054 4.986zm39.941-19.621h-12.404c-.642 0-1.337.268-2.139 2.037 0 .054-.053.161-.053.161L287.332 39.08h11.014s1.551-2.949 2.032-3.86c.481-.911.695-1.823 2.994-1.823h17.323c1.551 0 2.246 0 3.155 1.823a216.216 216.216 0 012.031 3.86h11.015L318.877 4.985zm-13.473 20.8l6.79-12.866 6.79 12.866h-13.58z" fill="#06080A"/></g><defs><clipPath id="clip0"><path fill="#fff" d="M0 0h337v107H0z"/></clipPath></defs></svg>