<svg width="337" height="107" viewBox="0 0 337 107" fill="none" xmlns="http://www.w3.org/2000/svg">
<g clip-path="url(#clip0)">
<path fill-rule="evenodd" clip-rule="evenodd" d="M111.052 94.4561H216.595L213.387 107H101.855L111.052 94.4561Z" fill="#E59200"/>
<path fill-rule="evenodd" clip-rule="evenodd" d="M130.566 97.5115C129.55 97.0827 128.801 96.9219 128.053 96.9219C125.754 96.9219 124.043 98.5301 124.043 100.782C124.043 102.336 125.219 104.427 127.946 104.427C129.069 104.427 129.871 104.159 130.566 103.784V102.658C129.764 103.194 128.855 103.462 128.053 103.462C126.289 103.462 125.112 102.336 125.112 100.674C125.112 99.0662 126.342 97.8868 127.999 97.8868C128.855 97.8868 129.603 98.1012 130.512 98.6373V97.5115H130.566Z" fill="#010711"/>
<path fill-rule="evenodd" clip-rule="evenodd" d="M131.902 100.674C131.902 102.658 133.399 104.427 135.805 104.427C138.265 104.427 139.762 102.658 139.762 100.674C139.762 98.6373 138.265 96.9219 135.859 96.9219C133.453 96.9219 131.902 98.6373 131.902 100.674ZM132.972 100.674C132.972 99.0662 134.201 97.8868 135.805 97.8868C137.409 97.8868 138.639 99.0662 138.639 100.674C138.639 102.283 137.409 103.462 135.805 103.462C134.201 103.462 132.972 102.283 132.972 100.674Z" fill="#010711"/>
<path fill-rule="evenodd" clip-rule="evenodd" d="M148.264 97.0293H147.302V102.658L142.383 97.0293H141.527V104.32H142.49V98.6911L147.355 104.32H148.264V97.0293Z" fill="#010711"/>
<path fill-rule="evenodd" clip-rule="evenodd" d="M153.823 97.4579C153.289 97.1363 152.754 96.9219 152.219 96.9219C150.883 96.9219 150.027 97.6724 150.027 98.8517C150.027 100.835 153.182 100.996 153.182 102.551C153.182 102.979 152.808 103.462 152.006 103.462C151.311 103.462 150.615 103.087 150.081 102.39V103.73C150.669 104.212 151.311 104.427 152.113 104.427C153.289 104.427 154.144 103.569 154.144 102.443C154.144 100.138 150.99 100.138 150.99 98.7445C150.99 98.2084 151.471 97.8868 152.166 97.8868C152.647 97.8868 153.235 98.0476 153.877 98.6373V97.4579H153.823Z" fill="#010711"/>
<path fill-rule="evenodd" clip-rule="evenodd" d="M161.046 97.0293H155.004V97.9942H157.517V104.32H158.533V97.9942H161.046V97.0293Z" fill="#010711"/>
<path fill-rule="evenodd" clip-rule="evenodd" d="M162.379 97.0293V104.32H163.448V101.157H163.876C164.411 101.157 164.838 101.318 165.801 102.819L166.763 104.32H167.993C167.512 103.623 167.298 103.355 166.977 102.872C166.442 101.961 166.015 101.264 165.373 100.835C166.175 100.514 166.603 99.8705 166.603 99.0664C166.603 97.7798 165.694 97.0293 164.197 97.0293H162.379ZM163.395 97.9406H164.09C165.106 97.9406 165.533 98.3695 165.533 99.0664C165.533 99.6561 165.213 100.246 164.09 100.246H163.395V97.9406Z" fill="#010711"/>
<path fill-rule="evenodd" clip-rule="evenodd" d="M175.106 97.0293H174.037V101.264C174.037 101.961 173.93 102.497 173.555 102.872C173.235 103.194 172.646 103.462 171.844 103.462C171.203 103.462 170.668 103.248 170.294 102.819C169.973 102.497 169.866 102.122 169.866 101.318V97.0293H168.797V101.586C168.797 103.569 170.294 104.427 171.844 104.427C173.983 104.427 175.052 103.248 175.052 101.479V97.0293H175.106Z" fill="#010711"/>
<path fill-rule="evenodd" clip-rule="evenodd" d="M183.285 97.5115C182.269 97.0827 181.52 96.9219 180.772 96.9219C178.473 96.9219 176.762 98.5301 176.762 100.782C176.762 102.336 177.938 104.427 180.665 104.427C181.788 104.427 182.59 104.159 183.285 103.784V102.658C182.483 103.194 181.574 103.462 180.772 103.462C179.007 103.462 177.831 102.336 177.831 100.674C177.831 99.0662 179.061 97.8868 180.718 97.8868C181.574 97.8868 182.322 98.1012 183.231 98.6373V97.5115H183.285Z" fill="#010711"/>
<path fill-rule="evenodd" clip-rule="evenodd" d="M190.396 97.0293H184.301V97.9942H186.814V104.32H187.883V97.9942H190.396V97.0293Z" fill="#010711"/>
<path d="M192.749 97.0293H191.68V104.32H192.749V97.0293Z" fill="#010711"/>
<path fill-rule="evenodd" clip-rule="evenodd" d="M194.566 100.674C194.566 102.658 196.063 104.427 198.469 104.427C200.929 104.427 202.426 102.658 202.426 100.674C202.426 98.6373 200.929 96.9219 198.523 96.9219C196.117 96.9219 194.566 98.6373 194.566 100.674ZM195.636 100.674C195.636 99.0662 196.865 97.8868 198.469 97.8868C200.127 97.8868 201.303 99.0662 201.303 100.674C201.303 102.283 200.073 103.462 198.469 103.462C196.865 103.462 195.636 102.283 195.636 100.674Z" fill="#010711"/>
<path fill-rule="evenodd" clip-rule="evenodd" d="M210.928 97.0293H209.912V102.658L204.993 97.0293H204.191V104.32H205.154V98.6911L210.019 104.32H210.928V97.0293Z" fill="#010711"/>
<path fill-rule="evenodd" clip-rule="evenodd" d="M200.232 68.2958H223.329L221.832 74.0854H207.182L206.381 76.9802H220.389L219.159 81.6976H205.151L204.402 84.5924H219.106L217.608 90.382H194.457L200.232 68.2958ZM168.152 82.6089H176.813C176.813 82.6625 176.707 85.8254 181.358 85.8254C184.513 85.8254 184.994 84.8068 185.101 84.378C185.261 83.5738 184.673 83.145 183.497 82.877C179.701 81.9656 174.568 80.3038 173.178 79.4461C172.215 78.8564 170.825 77.6235 170.772 75.0503C170.772 71.6731 174.782 67.4917 183.336 67.5453C187.614 67.5989 190.287 68.4566 191.891 69.1535C195.313 70.7081 195.58 73.9782 195.527 75.372H187.026C187.026 75.372 187.026 72.906 183.443 72.7452C181.679 72.6916 179.701 72.9596 179.701 74.3534C179.701 75.5328 180.877 75.8544 183.764 76.4977C184.406 76.6585 189.057 77.5698 190.501 78.1059C193.174 79.0708 194.457 80.4646 194.03 83.3594C193.121 89.8459 184.727 90.8644 180.449 90.918C175.103 90.9716 169.435 89.9531 168.259 84.5924C168.205 83.9491 168.152 82.6089 168.152 82.6089ZM157.779 83.2522L157.084 74.8359L151.577 83.2522H157.779ZM163.607 68.2422L167.457 90.382H158.154L157.94 87.7552H148.904L147.193 90.382H137.355L153.609 68.2958H163.607V68.2422ZM139.815 83.5738C139.44 84.378 138.799 85.4501 137.783 86.5222C135.805 88.6665 132.276 90.8644 126.341 90.8644C119.123 90.8644 116.289 88.2913 114.846 85.7181C113.83 83.8955 113.562 81.9656 113.723 80.3038C113.99 77.2482 116.931 67.4917 129.763 67.4917C136.981 67.4917 139.815 69.8504 140.884 72.4772C141.739 74.5678 141.419 77.7843 141.365 78.0523H132.917C133.185 76.4441 132.704 73.7101 129.816 73.7101C126.608 73.7101 123.561 76.0688 122.705 79.1781C121.743 82.6089 123.721 84.7532 126.769 84.8068C130.03 84.8604 131.634 82.1801 131.688 82.1265H140.296C140.296 82.3945 139.975 83.1986 139.815 83.5738Z" fill="#010711"/>
<path d="M337 52.6958H0V54.7329H337V52.6958Z" fill="#E59200"/>
<path fill-rule="evenodd" clip-rule="evenodd" d="M168.848 11.74C168.848 11.74 168.42 12.4905 168.42 13.1874C168.42 13.9915 168.848 14.7956 168.848 14.7956L184.14 43.6363L189.753 33.8798L171.949 0H163.448C163.448 0 163.448 0 163.394 0C163.234 0 162.86 0.0536072 162.592 0.268036C162.058 0.696894 161.63 1.55461 161.63 1.55461L144.574 33.8262L150.081 43.5827H157.727C157.727 43.5827 158.369 43.5827 159.01 43.261C159.545 42.993 160.026 42.5105 160.026 42.5105L169.169 34.5767L170.399 33.8262H152.487C152.487 33.8262 151.578 33.8798 151.578 33.0756C151.578 32.3788 152.487 32.4324 152.487 32.4324H154.679C154.679 32.4324 155.588 32.486 156.39 31.7891C157.032 31.253 157.406 30.2345 157.406 30.2345L168.474 9.27405C168.474 9.27405 168.848 8.46994 169.49 8.84519C170.185 9.22044 169.704 10.0245 169.704 10.0245L168.848 11.74Z" fill="#06080A"/>
<path d="M19.1945 4.98535C18.5529 4.98535 17.8578 5.25339 17.0558 7.02243C17.0558 7.07603 17.0024 7.18325 17.0024 7.18325L0 39.0795H11.0141C11.0141 39.0795 12.5647 36.1311 13.0459 35.2198C13.5271 34.3085 13.7409 33.3972 16.04 33.3972C18.1786 33.3972 31.7057 33.3972 33.3632 33.3972C34.9137 33.3972 35.6088 33.3972 36.5177 35.2198C37.5336 37.0961 38.5494 39.0795 38.5494 39.0795C39.4584 39.0795 45.8209 39.0795 49.5635 39.0795L31.5453 4.98535C31.5453 4.98535 19.7292 4.98535 19.1945 4.98535ZM18.0717 25.7849L24.862 12.9192L31.6522 25.7849H18.0717Z" fill="#06080A"/>
<path d="M62.5044 4.98535H54.5913C53.8428 4.98535 52.7734 5.46782 52.7734 6.808C52.7734 7.66571 52.7734 39.0795 52.7734 39.0795H92.6595V31.0921H62.5044V4.98535Z" fill="#06080A"/>
<path d="M99.3416 4.98549C98.9139 4.98549 97.2564 4.93188 97.3099 6.96895C97.3099 9.16685 97.3099 39.0797 97.3099 39.0797H137.196V31.0922H107.041V25.8387H132.384C132.384 25.8387 134.255 25.8923 134.255 24.1233C134.255 22.4078 134.255 18.2801 134.255 18.2801H107.041V13.0266H137.196V4.98549C137.196 4.98549 99.502 4.98549 99.3416 4.98549Z" fill="#06080A"/>
<path d="M231.138 28.1436L208.148 4.98525H199.165C199.165 4.98525 197.508 5.09246 197.508 6.64707C197.508 8.14807 197.508 39.0794 197.508 39.0794H207.239V15.8675C207.239 15.8675 229 37.7929 229.32 38.1145C229.641 38.4361 230.229 39.0258 231.085 39.0258C231.994 39.0258 240.816 39.0258 240.816 39.0258V4.93164C240.816 4.93164 233.277 4.93164 232.849 4.93164C232.101 4.93164 231.085 5.3605 231.085 6.70068C231.138 7.98725 231.138 28.1436 231.138 28.1436Z" fill="#06080A"/>
<path d="M287.971 18.6016C287.971 8.89868 280.165 4.98535 272.413 4.98535C264.927 4.98535 247.658 4.98535 247.39 4.98535C247.177 4.98535 245.84 5.19978 245.84 6.70078C245.84 8.20178 245.84 39.0795 245.84 39.0795C245.84 39.0795 262.201 39.0795 272.787 39.0795C283.32 39.0795 287.972 32.1642 287.918 25.5705C287.972 22.4077 287.971 28.1437 287.971 18.6016ZM278.936 24.6056C278.936 31.5209 271.878 31.0921 271.878 31.0921H255.678V12.9728C255.678 12.9728 263.163 12.9728 271.45 12.9728C279.417 12.9728 278.936 19.1913 278.882 19.6201C278.936 19.9954 278.936 20.8531 278.936 24.6056Z" fill="#06080A"/>
<path d="M318.877 4.98535C318.877 4.98535 307.061 4.98535 306.473 4.98535C305.831 4.98535 305.136 5.25339 304.334 7.02243C304.334 7.07603 304.281 7.18325 304.281 7.18325L287.332 39.0795H298.346C298.346 39.0795 299.897 36.1311 300.378 35.2198C300.859 34.3085 301.073 33.3972 303.372 33.3972C305.511 33.3972 319.091 33.3972 320.695 33.3972C322.246 33.3972 322.941 33.3972 323.85 35.2198C324.866 37.0961 325.881 39.0795 325.881 39.0795C326.79 39.0795 333.153 39.0795 336.896 39.0795L318.877 4.98535ZM305.404 25.7849L312.194 12.9192L318.984 25.7849H305.404Z" fill="#06080A"/>
</g>
<defs>
<clipPath id="clip0">
<rect width="337" height="107" fill="white"/>
</clipPath>
</defs>
</svg>
