<svg width="32" height="32" viewBox="0 0 32 32" fill="none" xmlns="http://www.w3.org/2000/svg">
<path d="M24.4 9.50005C25.4493 9.50005 26.3 8.64939 26.3 7.60005C26.3 6.55071 25.4493 5.70005 24.4 5.70005C23.3507 5.70005 22.5 6.55071 22.5 7.60005C22.5 8.64939 23.3507 9.50005 24.4 9.50005Z" fill="#FF9D1F"/>
<path d="M16.0008 8.04995C11.6008 8.04995 8.05078 11.5999 8.05078 15.9999C8.05078 20.3999 11.6008 23.9499 16.0008 23.9499C20.4008 23.9499 23.9508 20.3999 23.9508 15.9999C23.9508 11.5999 20.4008 8.04995 16.0008 8.04995ZM16.0008 21.4499C13.0008 21.4499 10.5508 18.9999 10.5508 15.9999C10.5508 12.9999 13.0008 10.5499 16.0008 10.5499C19.0008 10.5499 21.4508 12.9999 21.4508 15.9999C21.4508 18.9999 19.0008 21.4499 16.0008 21.4499Z" fill="#FF9D1F"/>
<rect x="1.25" y="1.25" width="29.5" height="29.5" stroke="#FF9D1F" stroke-width="2.5"/>
</svg>
