<svg width="48" height="47" viewBox="0 0 48 47" fill="none" xmlns="http://www.w3.org/2000/svg">
<path fill-rule="evenodd" clip-rule="evenodd" d="M25.7632 12.4342C25.7632 12.4342 25.3026 13.2368 25.3026 13.9737C25.3026 14.8553 25.7632 15.6711 25.7632 15.6711L42.0132 46.2237L48 35.8553L29.0789 0H20.0658C20.0658 0 20.0395 0 20 0C19.8421 0 19.4474 0.0263158 19.1316 0.302632C18.5921 0.776316 18.1316 1.67105 18.1316 1.67105L0 35.8553L5.85526 46.2237H13.9605C13.9605 46.2237 14.6316 46.2369 15.3289 45.8948C15.8684 45.6184 16.3947 45.0921 16.3947 45.0921L26.1316 36.6579L27.4605 35.8553H8.44737C8.44737 35.8553 7.48684 35.8948 7.48684 35.0658C7.48684 34.3158 8.44737 34.3553 8.44737 34.3553H10.7763C10.7763 34.3553 11.7368 34.3816 12.5658 33.6842C13.2368 33.1316 13.6579 32.0527 13.6579 32.0527L25.3947 9.86843C25.3947 9.86843 25.7632 9.02632 26.4868 9.4079C27.2368 9.78948 26.7237 10.6447 26.7237 10.6447L25.7632 12.4342Z" fill="#167843"/>
</svg>
