<svg width="29" height="28" viewBox="0 0 29 28" fill="none" xmlns="http://www.w3.org/2000/svg">
<path fill-rule="evenodd" clip-rule="evenodd" d="M15.234 7.44756C15.234 7.44756 14.9674 7.92366 14.9674 8.36576C14.9674 8.87586 15.234 9.38597 15.234 9.38597L24.7643 27.6818L28.2632 21.4925L17.1667 0H11.8684C11.8684 0 11.8684 0 11.8351 0C11.7351 0 11.5018 0.0340071 11.3352 0.170036C11.002 0.442093 10.7354 0.986207 10.7354 0.986207L0.105469 21.4585L3.53772 27.6478H8.30286C8.30286 27.6478 8.70273 27.6478 9.10261 27.4438C9.43583 27.2737 9.73574 26.9677 9.73574 26.9677L15.4339 21.9346L16.2004 21.4585H5.03724C5.03724 21.4585 4.47075 21.4925 4.47075 20.9824C4.47075 20.5403 5.03724 20.5743 5.03724 20.5743H6.40346C6.40346 20.5743 6.96995 20.6083 7.46979 20.1662C7.86967 19.8262 8.10292 19.18 8.10292 19.18L15.0007 5.88323C15.0007 5.88323 15.234 5.37313 15.6339 5.61118C16.0671 5.84923 15.7672 6.35934 15.7672 6.35934L15.234 7.44756Z" fill="#202020"/>
</svg>
