<svg width="21" height="20" viewBox="0 0 21 20" fill="none" xmlns="http://www.w3.org/2000/svg">
<g clip-path="url(#clip0)">
<path d="M10.0045 20C4.50204 20 0 15.5 0 10C0 4.5 4.50204 0 10.0045 0C15.507 0 20.0091 4.5 20.0091 10C20.0091 15.5 15.507 20 10.0045 20ZM10.0045 1.25C5.18986 1.25 1.25057 5.1875 1.25057 10C1.25057 14.8125 5.18986 18.75 10.0045 18.75C14.8192 18.75 18.7585 14.8125 18.7585 10C18.7585 5.1875 14.8192 1.25 10.0045 1.25Z" fill="#FF9D1F"/>
<path d="M8.12877 14L5.18994 11.0625L6.06534 10.1875L8.12877 12.25L13.9439 6.4375L14.8193 7.3125L8.12877 14Z" fill="#FF9D1F"/>
</g>
<defs>
<clipPath id="clip0">
<rect width="20.0091" height="20" fill="white"/>
</clipPath>
</defs>
</svg>
