<svg width="18" height="18" viewBox="0 0 18 18" fill="none" xmlns="http://www.w3.org/2000/svg">
<g clip-path="url(#clip0)">
<path d="M16.7646 1.23568C15.1171 -0.411886 12.446 -0.411886 10.7984 1.23564L7.27243 4.7616C5.56823 6.46587 5.72602 9.18134 7.27243 10.7278C7.53139 10.9868 7.81792 11.1979 8.12047 11.3714L8.76401 10.7278C9.18609 10.3057 9.03752 9.81218 9.02993 9.45609C8.93729 9.39041 8.84719 9.31943 8.76401 9.23625C7.97043 8.44274 7.93474 7.08241 8.76401 6.25314C8.88716 6.12999 12.2152 2.80199 12.2899 2.72725C13.1125 1.90463 14.4504 1.90463 15.273 2.72725C16.0956 3.54987 16.0956 4.88774 15.273 5.71036L12.9424 8.04098C13.0098 8.41388 13.4143 9.29722 13.2062 10.7544C13.2164 10.7444 13.2285 10.738 13.2387 10.7279L16.7646 7.2019C18.4121 5.55434 18.4121 2.88324 16.7646 1.23568Z" fill="#FF9D1F"/>
<path d="M11.0005 6.99888C10.7416 6.73992 10.455 6.52877 10.1525 6.35535L9.50901 6.99888C9.08686 7.42097 9.23543 7.91446 9.24302 8.27055C9.33573 8.33623 9.42583 8.40721 9.50901 8.49039C10.3026 9.28397 10.3383 10.6442 9.50901 11.4735C9.38558 11.5969 5.78192 15.2006 5.70982 15.2727C4.8872 16.0953 3.54933 16.0953 2.72671 15.2727C1.90408 14.4501 1.90408 13.1122 2.72671 12.2896L5.33062 9.68566C5.26323 9.31276 4.85872 8.42943 5.06681 6.97227C5.05665 6.98225 5.04442 6.98876 5.03429 6.99885L1.23513 10.7981C-0.412361 12.4456 -0.412361 15.1167 1.23513 16.7643C2.88269 18.4118 5.55376 18.4118 7.20132 16.7643L11.0005 12.9651C12.6731 11.2925 12.5817 8.58003 11.0005 6.99888Z" fill="#FF9D1F"/>
</g>
<defs>
<clipPath id="clip0">
<rect width="18" height="18" fill="white"/>
</clipPath>
</defs>
</svg>
