<svg width="27" height="36" viewBox="0 0 27 36" fill="none" xmlns="http://www.w3.org/2000/svg">
<path d="M17.1923 1.5H1.5V34.5H25.5V9.75L17.1923 1.5Z" stroke="#FF9D1F" stroke-width="2"/>
<path d="M15.5 11V4.5L22.5 11H15.5Z" fill="#FF9D1F"/>
<path d="M6.32715 23.2207H6.8252C7.29069 23.2207 7.639 23.1296 7.87012 22.9473C8.10124 22.7617 8.2168 22.4932 8.2168 22.1416C8.2168 21.7868 8.11914 21.5247 7.92383 21.3555C7.73177 21.1862 7.42904 21.1016 7.01562 21.1016H6.32715V23.2207ZM9.74512 22.0879C9.74512 22.8561 9.50423 23.4437 9.02246 23.8506C8.54395 24.2575 7.86198 24.4609 6.97656 24.4609H6.32715V27H4.81348V19.8613H7.09375C7.95964 19.8613 8.61719 20.0485 9.06641 20.4229C9.51888 20.7939 9.74512 21.349 9.74512 22.0879ZM17.0156 23.3623C17.0156 24.5374 16.6803 25.4375 16.0098 26.0625C15.3424 26.6875 14.3773 27 13.1143 27H11.0928V19.8613H13.334C14.4993 19.8613 15.4043 20.1689 16.0488 20.7842C16.6934 21.3994 17.0156 22.2588 17.0156 23.3623ZM15.4434 23.4014C15.4434 21.8682 14.7663 21.1016 13.4121 21.1016H12.6064V25.75H13.2559C14.7142 25.75 15.4434 24.9671 15.4434 23.4014ZM19.9844 27H18.4951V19.8613H22.5869V21.1016H19.9844V22.9424H22.4062V24.1777H19.9844V27Z" fill="#202020"/>
</svg>
