<svg width="210" height="28" viewBox="0 0 210 28" fill="none" xmlns="http://www.w3.org/2000/svg">
<g clip-path="url(#clip0)">
<path fill-rule="evenodd" clip-rule="evenodd" d="M105.234 7.44756C105.234 7.44756 104.967 7.92366 104.967 8.36576C104.967 8.87586 105.234 9.38597 105.234 9.38597L114.764 27.6818L118.263 21.4925L107.167 0H101.868C101.868 0 101.868 0 101.835 0C101.735 0 101.502 0.0340071 101.335 0.170036C101.002 0.442093 100.735 0.986207 100.735 0.986207L90.1055 21.4585L93.5377 27.6478H98.3029C98.3029 27.6478 98.7027 27.6478 99.1026 27.4438C99.4358 27.2737 99.7357 26.9677 99.7357 26.9677L105.434 21.9346L106.2 21.4585H95.0372C95.0372 21.4585 94.4707 21.4925 94.4707 20.9824C94.4707 20.5403 95.0372 20.5743 95.0372 20.5743H96.4035C96.4035 20.5743 96.97 20.6083 97.4698 20.1662C97.8697 19.8262 98.1029 19.18 98.1029 19.18L105.001 5.88323C105.001 5.88323 105.234 5.37313 105.634 5.61118C106.067 5.84923 105.767 6.35934 105.767 6.35934L105.234 7.44756Z" fill="white"/>
<path d="M11.9295 3.18307C11.5297 3.18307 11.0965 3.35311 10.5966 4.47535C10.5966 4.50935 10.5633 4.57737 10.5633 4.57737L0 24.8116H6.86449C6.86449 24.8116 7.83085 22.9412 8.13075 22.3631C8.43066 21.785 8.56395 21.2069 9.99683 21.2069C11.3297 21.2069 19.7604 21.2069 20.7934 21.2069C21.7598 21.2069 22.193 21.2069 22.7594 22.3631C23.3926 23.5534 24.0257 24.8116 24.0257 24.8116C24.5922 24.8116 28.5576 24.8116 30.8902 24.8116L19.6604 3.18307C19.6604 3.18307 12.2961 3.18307 11.9295 3.18307ZM11.2631 16.3779L15.4951 8.21614L19.7271 16.3779H11.2631Z" fill="white"/>
<path d="M38.9535 3.16263H33.9884C33.5219 3.16263 32.8555 3.46869 32.8555 4.31887C32.8555 4.86299 32.8555 24.7912 32.8555 24.7912H57.7142V19.7241H38.9202L38.9535 3.16263Z" fill="white"/>
<path d="M61.8803 3.16265C61.6138 3.16265 60.5807 3.12865 60.6141 4.42092C60.6141 5.81521 60.6141 24.7912 60.6141 24.7912H85.4728V19.7241H66.6788V16.3914H82.4737C82.4737 16.3914 83.64 16.4254 83.64 15.3032C83.64 14.215 83.64 11.5964 83.64 11.5964H66.6788V8.26372H85.4728V3.16265C85.5061 3.16265 61.9803 3.16265 61.8803 3.16265Z" fill="white"/>
<path d="M144.022 17.8537L129.694 3.16264H124.096C124.096 3.16264 123.062 3.23065 123.062 4.21686C123.062 5.16906 123.062 24.7912 123.062 24.7912H129.127V10.0661C129.127 10.0661 142.69 23.975 142.89 24.179C143.089 24.3831 143.456 24.7572 143.989 24.7572C144.556 24.7572 150.054 24.7572 150.054 24.7572V3.12863C150.054 3.12863 145.355 3.12863 145.089 3.12863C144.622 3.12863 143.989 3.40069 143.989 4.25087C144.022 5.06704 144.022 17.8537 144.022 17.8537Z" fill="white"/>
<path d="M179.442 11.8004C179.442 5.64515 174.577 3.16263 169.745 3.16263C165.08 3.16263 154.317 3.16263 154.15 3.16263C154.017 3.16263 153.184 3.29866 153.184 4.25086C153.184 5.20306 153.184 24.7912 153.184 24.7912C153.184 24.7912 163.38 24.7912 169.978 24.7912C176.543 24.7912 179.442 20.4043 179.409 16.2214C179.475 14.215 179.442 17.8537 179.442 11.8004ZM173.844 15.6092C173.844 19.9962 169.445 19.7241 169.445 19.7241H159.348V8.22969C159.348 8.22969 164.013 8.22969 169.178 8.22969C174.144 8.22969 173.844 12.1745 173.81 12.4466C173.844 12.6846 173.844 13.2287 173.844 15.6092Z" fill="white"/>
<path d="M198.738 3.16263C198.738 3.16263 191.374 3.16263 191.008 3.16263C190.608 3.16263 190.175 3.33266 189.675 4.4549C189.675 4.48891 189.641 4.55692 189.641 4.55692L179.078 24.7912H185.943C185.943 24.7912 186.909 22.9208 187.209 22.3427C187.509 21.7645 187.642 21.1864 189.075 21.1864C190.408 21.1864 198.872 21.1864 199.871 21.1864C200.838 21.1864 201.271 21.1864 201.837 22.3427C202.471 23.5329 203.104 24.7912 203.104 24.7912C203.67 24.7912 207.636 24.7912 209.968 24.7912L198.738 3.16263ZM190.308 16.3574L194.54 8.19569L198.772 16.3574H190.308Z" fill="white"/>
</g>
<defs>
<clipPath id="clip0">
<rect width="210" height="27.6818" fill="white"/>
</clipPath>
</defs>
</svg>
