<svg width="26" height="36" viewBox="0 0 26 36" fill="none" xmlns="http://www.w3.org/2000/svg">
<path d="M16.6923 1.5H1V34.5H25V9.75L16.6923 1.5Z" stroke="#FF9D1F" stroke-width="2"/>
<path d="M15 11V4.5L22 11H15Z" fill="#FF9D1F"/>
<path d="M5.82715 23.2207H6.3252C6.79069 23.2207 7.139 23.1296 7.37012 22.9473C7.60124 22.7617 7.7168 22.4932 7.7168 22.1416C7.7168 21.7868 7.61914 21.5247 7.42383 21.3555C7.23177 21.1862 6.92904 21.1016 6.51562 21.1016H5.82715V23.2207ZM9.24512 22.0879C9.24512 22.8561 9.00423 23.4437 8.52246 23.8506C8.04395 24.2575 7.36198 24.4609 6.47656 24.4609H5.82715V27H4.31348V19.8613H6.59375C7.45964 19.8613 8.11719 20.0485 8.56641 20.4229C9.01888 20.7939 9.24512 21.349 9.24512 22.0879ZM16.5156 23.3623C16.5156 24.5374 16.1803 25.4375 15.5098 26.0625C14.8424 26.6875 13.8773 27 12.6143 27H10.5928V19.8613H12.834C13.9993 19.8613 14.9043 20.1689 15.5488 20.7842C16.1934 21.3994 16.5156 22.2588 16.5156 23.3623ZM14.9434 23.4014C14.9434 21.8682 14.2663 21.1016 12.9121 21.1016H12.1064V25.75H12.7559C14.2142 25.75 14.9434 24.9671 14.9434 23.4014ZM19.4844 27H17.9951V19.8613H22.0869V21.1016H19.4844V22.9424H21.9062V24.1777H19.4844V27Z" fill="#202020"/>
</svg>
