<svg width="18" height="19" viewBox="0 0 18 19" fill="none" xmlns="http://www.w3.org/2000/svg">
<path d="M17 13.01C15.76 13.01 14.55 12.81 13.43 12.44C13.33 12.4 13.22 12.39 13.12 12.39C12.86 12.39 12.61 12.49 12.41 12.68L10.21 14.88C7.38 13.43 5.06 11.12 3.62 8.29001L5.82 6.09001C6.1 5.81001 6.18 5.42001 6.07 5.07001C5.7 3.95001 5.5 2.75001 5.5 1.50001C5.5 0.950007 5.05 0.500007 4.5 0.500007H1C0.45 0.500007 0 0.950007 0 1.50001C0 10.89 7.61 18.5 17 18.5C17.55 18.5 18 18.05 18 17.5V14.01C18 13.46 17.55 13.01 17 13.01ZM2.03 2.50001H3.53C3.6 3.39001 3.75 4.26001 3.99 5.09001L2.79 6.29001C2.38 5.09001 2.12 3.82001 2.03 2.50001ZM16 16.47C14.68 16.38 13.41 16.12 12.2 15.72L13.39 14.53C14.24 14.77 15.11 14.92 15.99 14.98V16.47H16ZM15 6.50001H12.41L17.43 1.48001L16.02 0.0700073L11 5.09001V2.50001H9V8.50001H15V6.50001Z" fill="white"/>
</svg>
