<svg width="22" height="22" viewBox="0 0 22 22" fill="none" xmlns="http://www.w3.org/2000/svg">
<path fill-rule="evenodd" clip-rule="evenodd" d="M12.0003 6.625C12.0003 6.07275 11.5525 5.625 11.0003 5.625C10.4479 5.625 10.0003 6.07275 10.0003 6.625L10.0003 10L6.62514 10C6.07284 10 5.62515 10.4478 5.62515 11C5.62515 11.5522 6.07284 12 6.62514 12L10.0003 12L10.0003 15.375C10.0003 15.9273 10.4479 16.375 11.0003 16.375C11.5525 16.375 12.0003 15.9272 12.0003 15.375V12H15.3751C15.9274 12 16.3751 11.5522 16.3752 11C16.3751 10.4478 15.9274 10 15.3751 10H12.0003V6.625Z" fill="black"/>
<mask id="mask0" mask-type="alpha" maskUnits="userSpaceOnUse" x="5" y="5" width="12" height="12">
<path fill-rule="evenodd" clip-rule="evenodd" d="M12.0003 6.625C12.0003 6.07275 11.5525 5.625 11.0003 5.625C10.4479 5.625 10.0003 6.07275 10.0003 6.625L10.0003 10L6.62514 10C6.07284 10 5.62515 10.4478 5.62515 11C5.62515 11.5522 6.07284 12 6.62514 12L10.0003 12L10.0003 15.375C10.0003 15.9273 10.4479 16.375 11.0003 16.375C11.5525 16.375 12.0003 15.9272 12.0003 15.375V12H15.3751C15.9274 12 16.3751 11.5522 16.3752 11C16.3751 10.4478 15.9274 10 15.3751 10H12.0003V6.625Z" fill="white"/>
</mask>
<g mask="url(#mask0)">
<rect width="22" height="22" fill="#DDAF80"/>
</g>
</svg>
