<svg width="22" height="22" viewBox="0 0 22 22" fill="none" xmlns="http://www.w3.org/2000/svg">
<path fill-rule="evenodd" clip-rule="evenodd" d="M16.7347 6.54461C17.0884 6.19177 17.0884 5.61816 16.7347 5.26531C16.3818 4.91156 15.8091 4.91156 15.4554 5.26531L11.0005 9.72025L6.54461 5.26531C6.19177 4.91156 5.61816 4.91156 5.26531 5.26531C4.91156 5.61816 4.91156 6.19177 5.26531 6.54461L9.72025 11.0005L5.26531 15.4554C4.91156 15.8091 4.91156 16.3818 5.26531 16.7347C5.61816 17.0884 6.19177 17.0884 6.54461 16.7347L11.0005 12.2798L15.4554 16.7347C15.8091 17.0884 16.3818 17.0884 16.7347 16.7347C17.0884 16.3818 17.0884 15.8091 16.7347 15.4554L12.2798 11.0005L16.7347 6.54461Z" fill="black"/>
<mask id="mask0" mask-type="alpha" maskUnits="userSpaceOnUse" x="5" y="5" width="12" height="12">
<path fill-rule="evenodd" clip-rule="evenodd" d="M16.7347 6.54461C17.0884 6.19177 17.0884 5.61816 16.7347 5.26531C16.3818 4.91156 15.8091 4.91156 15.4554 5.26531L11.0005 9.72025L6.54461 5.26531C6.19177 4.91156 5.61816 4.91156 5.26531 5.26531C4.91156 5.61816 4.91156 6.19177 5.26531 6.54461L9.72025 11.0005L5.26531 15.4554C4.91156 15.8091 4.91156 16.3818 5.26531 16.7347C5.61816 17.0884 6.19177 17.0884 6.54461 16.7347L11.0005 12.2798L15.4554 16.7347C15.8091 17.0884 16.3818 17.0884 16.7347 16.7347C17.0884 16.3818 17.0884 15.8091 16.7347 15.4554L12.2798 11.0005L16.7347 6.54461Z" fill="white"/>
</mask>
<g mask="url(#mask0)">
<rect width="22" height="22" fill="#888888"/>
</g>
</svg>
