<svg width="61" height="61" fill="none" xmlns="http://www.w3.org/2000/svg"><circle opacity=".1" cx="30.5" cy="30.5" r="30.5" fill="#202020"/><path fill-rule="evenodd" clip-rule="evenodd" d="M31.781 23.073s-.336.585-.336 1.123c0 .643.336 1.239.336 1.239l11.852 22.293L48 40.162 34.21 14h-6.623a.977.977 0 00-.633.22c-.393.346-.73 1-.73 1L13 40.161l4.27 7.566h5.912s.49.01.998-.24c.394-.202.778-.586.778-.586l7.102-6.154.969-.586H19.152s-.7.03-.7-.576c0-.547.7-.518.7-.518h1.698s.7.02 1.305-.49c.49-.403.797-1.19.797-1.19l8.56-16.197s.27-.614.797-.336c.547.279.173.902.173.902l-.7 1.316z" fill="#fff"/></svg>