<svg width="86" height="86" viewBox="0 0 86 86" fill="none" xmlns="http://www.w3.org/2000/svg">
<path d="M84.8225 70.3426L49.1849 34.8225C52.835 25.6686 50.9511 14.8718 43.5331 7.43916C34.506 -1.55823 20.455 -2.37973 10.4467 4.89642L25.5181 19.9573L19.9448 25.473L4.91262 10.4904C-2.3876 20.4267 -1.56338 34.4704 7.46377 43.4287C14.764 50.7048 25.4003 52.6217 34.506 49.2183L70.2614 84.8558C71.792 86.3814 74.2647 86.3814 75.7954 84.8558L84.8225 75.8584C86.3925 74.3719 86.3925 71.9074 84.8225 70.3426ZM73.048 76.6016L35.9189 39.595C33.5248 41.3554 30.8559 42.4116 28.0692 42.8028C22.7314 43.5852 17.1189 41.9813 13.0371 37.9129C9.30845 34.2357 7.58151 29.3067 7.85625 24.4559L19.984 36.5437L36.6254 19.9573L24.4976 7.86946C29.3644 7.59563 34.2705 9.31687 37.9991 12.9941C42.2379 17.2189 43.8471 23.0477 42.8659 28.4852C42.3949 31.2627 41.2175 33.8445 39.412 36.1525L76.5019 73.1201L73.048 76.6016Z" fill="#FFB650"/>
</svg>
