<svg width="86" height="86" viewBox="0 0 86 86" fill="none" xmlns="http://www.w3.org/2000/svg">
<path d="M75.855 47.214C76.0319 45.838 76.1645 44.462 76.1645 43C76.1645 41.538 76.0319 40.162 75.855 38.786L85.1826 31.691C86.0225 31.046 86.2435 29.885 85.713 28.939L76.8718 14.061C76.4739 13.373 75.7224 12.986 74.9267 12.986C74.6615 12.986 74.3962 13.029 74.1752 13.115L63.1678 17.415C60.8691 15.695 58.3936 14.276 55.697 13.201L54.0171 1.806C53.8845 0.774 52.9562 0 51.851 0H34.1685C33.0633 0 32.135 0.774 32.0024 1.806L30.3226 13.201C27.626 14.276 25.1504 15.738 22.8517 17.415L11.8443 13.115C11.5791 13.029 11.3139 12.986 11.0486 12.986C10.2971 12.986 9.5456 13.373 9.14775 14.061L0.306489 28.939C-0.268193 29.885 -0.00295432 31.046 0.836965 31.691L10.1645 38.786C9.98767 40.162 9.85505 41.581 9.85505 43C9.85505 44.419 9.98767 45.838 10.1645 47.214L0.836965 54.309C-0.00295432 54.954 -0.223986 56.115 0.306489 57.061L9.14775 71.939C9.5456 72.627 10.2971 73.014 11.0928 73.014C11.3581 73.014 11.6233 72.971 11.8443 72.885L22.8517 68.585C25.1504 70.305 27.626 71.724 30.3226 72.799L32.0024 84.194C32.135 85.226 33.0633 86 34.1685 86H51.851C52.9562 86 53.8845 85.226 54.0171 84.194L55.697 72.799C58.3936 71.724 60.8691 70.262 63.1678 68.585L74.1752 72.885C74.4404 72.971 74.7057 73.014 74.9709 73.014C75.7224 73.014 76.4739 72.627 76.8718 71.939L85.713 57.061C86.2435 56.115 86.0225 54.954 85.1826 54.309L75.855 47.214ZM67.1022 39.861C67.279 41.194 67.3232 42.097 67.3232 43C67.3232 43.903 67.2348 44.849 67.1022 46.139L66.4833 50.998L70.4177 54.008L75.1919 57.62L72.0975 62.823L66.4833 60.63L61.8858 58.824L57.9073 61.748C56.0064 63.124 54.194 64.156 52.3815 64.887L47.6956 66.736L46.9883 71.595L46.1042 77.4H39.9153L39.0754 71.595L38.3681 66.736L33.6822 64.887C31.7814 64.113 30.0131 63.124 28.2449 61.834L24.2221 58.824L19.5362 60.673L13.922 62.866L10.8276 57.663L15.6019 54.051L19.5362 51.041L18.9173 46.182C18.7847 44.849 18.6963 43.86 18.6963 43C18.6963 42.14 18.7847 41.151 18.9173 39.861L19.5362 35.002L15.6019 31.992L10.8276 28.38L13.922 23.177L19.5362 25.37L24.1337 27.176L28.1122 24.252C30.0131 22.876 31.8256 21.844 33.638 21.113L38.3239 19.264L39.0312 14.405L39.9153 8.6H46.06L46.8999 14.405L47.6072 19.264L52.2931 21.113C54.194 21.887 55.9622 22.876 57.7305 24.166L61.7532 27.176L66.4391 25.327L72.0533 23.134L75.1477 28.337L70.4177 31.992L66.4833 35.002L67.1022 39.861ZM43.0098 25.8C33.2402 25.8 25.3272 33.497 25.3272 43C25.3272 52.503 33.2402 60.2 43.0098 60.2C52.7794 60.2 60.6923 52.503 60.6923 43C60.6923 33.497 52.7794 25.8 43.0098 25.8ZM43.0098 51.6C38.1471 51.6 34.1685 47.73 34.1685 43C34.1685 38.27 38.1471 34.4 43.0098 34.4C47.8725 34.4 51.851 38.27 51.851 43C51.851 47.73 47.8725 51.6 43.0098 51.6Z" fill="#FFB650"/>
</svg>
