<svg width="61" height="61" viewBox="0 0 61 61" fill="none" xmlns="http://www.w3.org/2000/svg">
<circle opacity="0.1" cx="30.5" cy="30.5" r="30.5" fill="#202020"/>
<path fill-rule="evenodd" clip-rule="evenodd" d="M31.7812 23.0728C31.7812 23.0728 31.4453 23.6585 31.4453 24.1962C31.4453 24.8394 31.7812 25.4347 31.7812 25.4347L43.6334 47.728L48 40.1624L34.2092 14H27.6353C27.6353 14 27.6161 14 27.5873 14C27.4722 14 27.1843 14.0192 26.9539 14.2208C26.5605 14.5665 26.2246 15.2193 26.2246 15.2193L13 40.1624L17.2706 47.728H23.1823C23.1823 47.728 23.6718 47.7376 24.1804 47.4879C24.5739 47.2863 24.9578 46.9023 24.9578 46.9023L32.0595 40.7481L33.0288 40.1624H19.1516C19.1516 40.1624 18.4511 40.1912 18.4511 39.5864C18.4511 39.0391 19.1516 39.0679 19.1516 39.0679H20.8503C20.8503 39.0679 21.5509 39.0871 22.1555 38.5783C22.6449 38.1751 22.952 37.3878 22.952 37.3878L31.5125 21.1911C31.5125 21.1911 31.7812 20.5766 32.309 20.855C32.856 21.1335 32.4818 21.7575 32.4818 21.7575L31.7812 23.0728Z" fill="white"/>
</svg>
